<svg width="1724" height="1723" viewBox="0 0 1724 1723" fill="none" xmlns="http://www.w3.org/2000/svg">
<path d="M1439.51 52.7064L1352.57 17.452L1040.04 1L728.862 17.452C509.74 93.8365 460.806 89.7235 330.39 191.374C171.985 314.838 90.7083 440.505 40.1856 629.115C-3.65585 792.784 -7.98674 783.647 13.7489 1031.6C34.5806 1269.25 213.738 1431.63 298.667 1513.41C385.921 1597.44 578.885 1719.06 697.242 1719.06C800.228 1719.06 962.9 1740.99 1133.45 1665.01C1319.39 1582.16 1423.65 1506.95 1533.78 1364.17C1651.21 1211.94 1713.27 1024.67 1713.27 923.489C1713.27 817.139 1744.99 513.951 1693.88 368.821C1646.48 234.228 1592.25 185.498 1574.63 143.193C1560.53 109.348 1472.61 64.6537 1439.51 52.7064Z" fill="url(#paint0_linear_16_251)" stroke="black"/>
<path d="M473 483.383H1015.58C1111.28 483.383 1186.28 512.094 1240.58 569.516C1264.8 592.172 1281.59 614.047 1290.97 635.141C1312.06 677.328 1322.61 718.539 1322.61 758.773V782.797C1322.61 844.516 1295.85 904.867 1242.34 963.852C1207.96 996.664 1176.71 1017.76 1148.59 1027.13C1219.68 1102.91 1255.23 1203.11 1255.23 1327.72H1084.72V1314.83C1084.72 1222.64 1047.41 1149.4 972.805 1095.1C930.227 1065.02 874.562 1049.98 805.812 1049.98H473V887.094H1026.12C1086.67 887.094 1127.69 857.211 1149.17 797.445C1151.52 785.336 1153.08 775.18 1153.86 766.977C1153.86 733.773 1139.99 703.695 1112.26 676.742C1088.43 657.992 1063.04 648.617 1036.09 648.617C1036.09 647.055 1027.88 646.273 1011.48 646.273H473V483.383Z" fill="black"/>
<defs>
<linearGradient id="paint0_linear_16_251" x1="1453.2" y1="86.1981" x2="477.152" y2="1721.25" gradientUnits="userSpaceOnUse">
<stop stop-color="#FFBE5F"/>
<stop offset="1" stop-color="#FFDF6D"/>
</linearGradient>
</defs>
</svg>
